<svg width="32" height="32" viewBox="0 0 32 32" fill="none" xmlns="http://www.w3.org/2000/svg">
<path d="M8.33333 7.66666H26.2381C26.9453 7.66666 27.6236 7.94761 28.1237 8.4477C28.6238 8.9478 28.9048 9.62608 28.9048 10.3333V23.6667C28.9048 24.3739 28.6238 25.0522 28.1237 25.5523C27.6236 26.0524 26.9453 26.3333 26.2381 26.3333H7.38095" fill="#B7CAFD"/>
<path d="M8.33333 7.66666H26.2381C26.9453 7.66666 27.6236 7.94761 28.1237 8.4477C28.6238 8.9478 28.9048 9.62608 28.9048 10.3333V23.6667C28.9048 24.3739 28.6238 25.0522 28.1237 25.5523C27.6236 26.0524 26.9453 26.3333 26.2381 26.3333H7.38095" stroke="black" stroke-width="1.5" stroke-linecap="round" stroke-linejoin="round"/>
<path d="M3 23.6667C3 24.3739 3.28095 25.0522 3.78105 25.5523C4.28115 26.0524 4.95942 26.3333 5.66667 26.3333C6.37391 26.3333 7.05219 26.0524 7.55228 25.5523C8.05238 25.0522 8.33333 24.3739 8.33333 23.6667C8.33333 22.9594 8.05238 22.2811 7.55228 21.781C7.05219 21.281 6.37391 21 5.66667 21C4.95942 21 4.28115 21.281 3.78105 21.781C3.28095 22.2811 3 22.9594 3 23.6667Z" stroke="black" stroke-width="1.5" stroke-linecap="round" stroke-linejoin="round"/>
<path d="M8.33333 23.6667V7.66667C8.33333 6.95942 8.05238 6.28115 7.55228 5.78105C7.05219 5.28095 6.37391 5 5.66667 5C4.95942 5 4.28115 5.28095 3.78105 5.78105C3.28095 6.28115 3 6.95942 3 7.66667V23.6667" stroke="black" stroke-width="1.5" stroke-linecap="round" stroke-linejoin="round"/>
<path d="M16.0064 12.922C15.4731 12.6173 14.8095 13.0024 14.8095 13.6166V20.0024C14.8095 20.6167 15.4731 21.0017 16.0064 20.697L21.594 17.5041C22.1314 17.197 22.1314 16.422 21.594 16.1149L16.0064 12.922Z" fill="black"/>
</svg>
