<svg width="32" height="32" viewBox="0 0 32 32" fill="none" xmlns="http://www.w3.org/2000/svg">
<path d="M8 7.58333H27.5833C28.3569 7.58333 29.0987 7.89062 29.6457 8.4376C30.1927 8.98458 30.5 9.72645 30.5 10.5V25.0833C30.5 25.8569 30.1927 26.5987 29.6457 27.1457C29.0987 27.6927 28.3569 28 27.5833 28H6.95834" fill="#B7CAFD"/>
<path d="M8 7.58333H27.5833C28.3569 7.58333 29.0987 7.89062 29.6457 8.4376C30.1927 8.98458 30.5 9.72645 30.5 10.5V25.0833C30.5 25.8569 30.1927 26.5987 29.6457 27.1457C29.0987 27.6927 28.3569 28 27.5833 28H6.95834" stroke="black" stroke-width="1.5" stroke-linecap="round" stroke-linejoin="round"/>
<path d="M8 25.0833V7.58334C8 6.80979 7.69271 6.06792 7.14573 5.52094C6.59874 4.97396 5.85688 4.66667 5.08333 4.66667C4.30978 4.66667 3.56792 4.97396 3.02094 5.52094C2.47395 6.06792 2.16666 6.80979 2.16666 7.58334V25.0833" fill="white"/>
<path d="M8 25.0833V7.58334C8 6.80979 7.69271 6.06792 7.14573 5.52094C6.59874 4.97396 5.85688 4.66667 5.08333 4.66667C4.30978 4.66667 3.56792 4.97396 3.02094 5.52094C2.47395 6.06792 2.16666 6.80979 2.16666 7.58334V25.0833" stroke="black" stroke-width="1.5" stroke-linecap="round" stroke-linejoin="round"/>
<path d="M16.2802 13.2673C15.7469 12.9625 15.0833 13.3476 15.0833 13.9619V21.2048C15.0833 21.819 15.7469 22.2041 16.2802 21.8994L22.6178 18.2779C23.1552 17.9708 23.1552 17.1958 22.6178 16.8887L16.2802 13.2673Z" fill="black"/>
<path d="M2.16666 25.0833C2.16666 25.8569 2.47395 26.5988 3.02094 27.1457C3.56792 27.6927 4.30978 28 5.08333 28C5.85688 28 6.59874 27.6927 7.14573 27.1457C7.69271 26.5988 8 25.8569 8 25.0833C8 24.3098 7.69271 23.5679 7.14573 23.0209C6.59874 22.474 5.85688 22.1667 5.08333 22.1667C4.30978 22.1667 3.56792 22.474 3.02094 23.0209C2.47395 23.5679 2.16666 24.3098 2.16666 25.0833Z" fill="#6BA1FF" stroke="black" stroke-width="1.5" stroke-linecap="round" stroke-linejoin="round"/>
</svg>
