<svg width="48" height="48" viewBox="0 0 48 48" fill="none" xmlns="http://www.w3.org/2000/svg">
<g clip-path="url(#clip0_1_52)">
<g opacity="0.1">
<path d="M48 23.5H0" stroke="black"/>
<path d="M48 47.5001H0" stroke="black"/>
<path d="M23.5 0V48" stroke="black"/>
<path d="M47.5 0V48" stroke="black"/>
</g>
<g opacity="0.25">
<path fill-rule="evenodd" clip-rule="evenodd" d="M48 43V44H47V43H48ZM48 39V40H47V39H48ZM48 35V36H47V35H48ZM48 31V32H47V31H48ZM48 27V28H47V27H48ZM48 23V24H47V23H48ZM48 19V20H47V19H48ZM48 15V16H47V15H48ZM48 11V12H47V11H48ZM48 7V8H47V7H48ZM48 3V4H47V3H48Z" fill="black"/>
<path fill-rule="evenodd" clip-rule="evenodd" d="M47 47H48V48H47V47ZM43 47H44V48H43V47ZM39 47H40V48H39V47ZM35 47H36V48H35V47ZM31 47H32V48H31V47ZM27 47H28V48H27V47ZM23 47H24V48H23V47ZM19 47H20V48H19V47ZM15 47H16V48H15V47ZM11 47H12V48H11V47ZM7 47H8V48H7V47ZM3 47H4V48H3V47Z" fill="black"/>
</g>
<g opacity="0.1">
<path fill-rule="evenodd" clip-rule="evenodd" d="M-0.646467 48.3536L48.3535 -0.646466L47.6464 -1.35358L-1.35358 47.6465L-0.646467 48.3536ZM46.3535 49.3536L49.3535 46.3536L48.6464 45.6465L45.6464 48.6465L46.3535 49.3536Z" fill="black"/>
</g>
</g>
<defs>
<clipPath id="clip0_1_52">
<rect width="48" height="48" fill="white"/>
</clipPath>
</defs>
</svg>
